<svg width="22" height="23" viewBox="0 0 22 23" fill="none" xmlns="http://www.w3.org/2000/svg">
<path d="M7.66667 22V13.7045C7.66667 13.0767 7.66667 12.7628 7.78777 12.523C7.8943 12.3121 8.06428 12.1406 8.27334 12.0331C8.51102 11.9109 8.82216 11.9109 9.44444 11.9109H12.5556C13.1778 11.9109 13.489 11.9109 13.7267 12.0331C13.9357 12.1406 14.1057 12.3121 14.2122 12.523C14.3333 12.7628 14.3333 13.0767 14.3333 13.7045V22M9.90855 1.55731L2.37266 7.47077C1.86891 7.86606 1.61704 8.06371 1.43559 8.31123C1.27485 8.53048 1.15511 8.77748 1.08225 9.0401C1 9.33657 1 9.6585 1 10.3024V18.4128C1 19.6684 1 20.2962 1.24221 20.7758C1.45526 21.1977 1.79522 21.5407 2.21335 21.7556C2.68871 22 3.31099 22 4.55556 22H17.4444C18.689 22 19.3113 22 19.7866 21.7556C20.2048 21.5407 20.5447 21.1977 20.7578 20.7758C21 20.2962 21 19.6684 21 18.4128V10.3024C21 9.6585 21 9.33657 20.9177 9.0401C20.8449 8.77748 20.7252 8.53048 20.5644 8.31123C20.383 8.06371 20.1311 7.86606 19.6273 7.47077L12.0915 1.55731C11.7011 1.25099 11.5059 1.09783 11.2904 1.03896C11.1002 0.987013 10.8998 0.987013 10.7096 1.03896C10.4941 1.09783 10.2989 1.25099 9.90855 1.55731Z" stroke="#B6B6B6" stroke-width="2" stroke-linecap="round" stroke-linejoin="round"/>
</svg>
