<svg width="25" height="27" viewBox="0 0 25 27" fill="none" xmlns="http://www.w3.org/2000/svg">
<path d="M23.5 11H1M17.25 1V6M7.25 1V6M7 26H17.5C19.6002 26 20.6503 26 21.4525 25.5913C22.1581 25.2317 22.7317 24.6581 23.0913 23.9525C23.5 23.1503 23.5 22.1002 23.5 20V9.5C23.5 7.3998 23.5 6.3497 23.0913 5.54754C22.7317 4.84193 22.1581 4.26825 21.4525 3.90873C20.6503 3.5 19.6002 3.5 17.5 3.5H7C4.8998 3.5 3.8497 3.5 3.04754 3.90873C2.34193 4.26825 1.76825 4.84193 1.40873 5.54754C1 6.3497 1 7.3998 1 9.5V20C1 22.1002 1 23.1503 1.40873 23.9525C1.76825 24.6581 2.34193 25.2317 3.04754 25.5913C3.8497 26 4.8998 26 7 26Z" stroke="#B6B6B6" stroke-width="2" stroke-linecap="round" stroke-linejoin="round"/>
</svg>
